<svg xmlns="http://www.w3.org/2000/svg" viewBox="0 0 120 120" width="120" height="120" fill="none">
  <defs>
    <linearGradient id="bg4" x1="0%" y1="0%" x2="100%" y2="100%">
      <stop offset="0%" stop-color="#EA580C" />
      <stop offset="100%" stop-color="#C2410C" />
    </linearGradient>
  </defs>
  <circle cx="60" cy="60" r="56" fill="url(#bg4)" stroke="#FB923C" stroke-width="4"/>
  <path d="M28 104 C32 80 44 72 60 72 C76 72 88 80 92 104 Z" fill="#1E293B" stroke="#FB923C" stroke-width="2"/>
  <circle cx="60" cy="50" r="21" fill="#FFEDD5"/>
  <path d="M38 48 C36 32 46 22 60 22 C74 22 84 32 82 48 C82 52 80 58 78 60 C78 52 74 40 60 40 C46 40 42 52 42 60 C40 58 38 52 38 48 Z" fill="#0F172A"/>
  <circle cx="52" cy="48" r="2.5" fill="#0F172A"/>
  <circle cx="68" cy="48" r="2.5" fill="#0F172A"/>
  <path d="M55 58 Q60 63 65 58" stroke="#0F172A" stroke-width="2" stroke-linecap="round" fill="none"/>
</svg>

